<svg width="20" height="21" viewBox="0 0 20 21" fill="none" xmlns="http://www.w3.org/2000/svg">
<g id="icon-edit">
<g id="Vector">
<path fill-rule="evenodd" clip-rule="evenodd" d="M2 3.16667C2 2.79848 2.29848 2.5 2.66667 2.5H9.33333C9.70152 2.5 10 2.79848 10 3.16667C10 3.53486 9.70152 3.83333 9.33333 3.83333H3.33333V17.1667H16.6667V12.5C16.6667 12.1318 16.9651 11.8333 17.3333 11.8333C17.7015 11.8333 18 12.1318 18 12.5V17.8333C18 18.2015 17.7015 18.5 17.3333 18.5H2.66667C2.29848 18.5 2 18.2015 2 17.8333V3.16667Z" fill="#303030"/>
<path fill-rule="evenodd" clip-rule="evenodd" d="M7.67725 11.375L12.3096 6.74264L14.1953 8.62826L9.56287 13.2606L7.58297 13.3549L7.67725 11.375ZM15.6095 9.09966L11.8382 5.32843L6.73444 10.4322C6.4999 10.6668 6.36121 10.9803 6.34543 11.3116L6.25115 13.2915C6.21374 14.0771 6.86085 14.7242 7.64639 14.6868L9.62629 14.5925C9.9576 14.5767 10.2711 14.438 10.5057 14.2035L15.6095 9.09966Z" fill="#303030"/>
<path fill-rule="evenodd" clip-rule="evenodd" d="M17.4951 5.32843L15.6095 3.44281C15.0888 2.92211 14.2446 2.92211 13.7239 3.44281L11.8382 5.32843L15.6095 9.09966L17.4951 7.21405C18.0158 6.69335 18.0158 5.84913 17.4951 5.32843ZM13.2525 5.79983L15.1381 7.68545L16.5523 6.27124L14.6667 4.38562L13.2525 5.79983Z" fill="#303030"/>
</g>
</g>
</svg>
